<?xml version="1.0" encoding="utf-8"?>
<!-- Generator: Adobe Illustrator 16.0.0, SVG Export Plug-In . SVG Version: 6.00 Build 0)  -->
<!DOCTYPE svg PUBLIC "-//W3C//DTD SVG 1.0//EN" "http://www.w3.org/TR/2001/REC-SVG-20010904/DTD/svg10.dtd">
<svg version="1.0" id="Layer_1" xmlns="http://www.w3.org/2000/svg" xmlns:xlink="http://www.w3.org/1999/xlink" x="0px" y="0px"
	 width="136.809px" height="98.519px" viewBox="0 0 136.809 98.519" enable-background="new 0 0 136.809 98.519"
	 xml:space="preserve">
<g>
	<path fill="#BE1E2D" d="M135.428,0.952L136.477,0l-0.01,1.407l0,0c0,0.698-0.012,1.404-0.038,2.117l0.38-0.304l-0.426,1.492l0,0
		c-0.384,8.205-1.979,17.4-3.685,25.228l-0.149,0.695l-0.67-0.24l0,0c-2.902-1.039-5.852-1.885-8.812-2.501l0,0
		c-4.409,5.226-9.625,10.371-15.395,15.34l0,0c-1.842,1.583-3.737,3.148-5.691,4.691l0,0c-1.243,1.13-2.511,2.259-3.802,3.358l0,0
		C69.38,76.045,30.785,94.38,0.165,98.519l-0.158-1.222L0,97.292l0,0c7.402-0.997,15.289-2.845,23.41-5.416l0,0
		c-3.451,0.996-6.806,1.813-10.038,2.432l-0.283-1.209l0,0c8.619-2.384,16.888-5.462,24.87-9.083l0,0
		c-8.842,3.248-17.068,5.482-24.042,6.429l-0.36-1.173l0,0c33.509-16.686,64.489-28.735,90.532-51.145l0,0
		c3.822-3.289,7.538-6.8,11.149-10.577l0,0c-4.195,0.071-8.36,0.15-12.247,0.228l-0.151-1.224l0,0
		c4.553-1.046,9.309-1.265,14.103-0.829l0,0c0.529-0.568,1.052-1.149,1.576-1.732l0,0c-1.216-0.434-2.371-0.81-3.396-1.065
		l0.066-1.214l0,0c1.646-0.223,4.329-1.238,7.21-2.228l0,0c2.435-2.951,4.817-6.051,7.136-9.321l0,0
		c-9.489,6.415-20.013,11.479-30.228,16.017l-0.564-1.105l0,0c11.973-6.976,24.264-13.39,34.736-22.397l0,0
		C134.129,2.111,134.786,1.54,135.428,0.952L135.428,0.952z M134.283,3.619c-6.837,5.88-14.396,10.642-22.099,15.146l0,0
		c6.728-3.388,13.313-7.151,19.379-11.52l0,0c0.259-0.377,0.511-0.753,0.759-1.132l0.449,0.24l0,0
		c0.803-0.593,1.598-1.199,2.38-1.812l0,0c0.024-0.584,0.044-1.159,0.062-1.727l0,0C134.898,3.085,134.592,3.353,134.283,3.619
		L134.283,3.619z M134.489,6.617c-0.515,0.397-1.041,0.787-1.563,1.168l0,0c-0.527,1.156-1.082,2.3-1.664,3.447l0,0
		c0.138,0.025,0.276,0.092,0.418,0.239l0,0c0.181,0.216,0.184,0.434,0.176,0.561l-0.005,0.145l-0.073,0.128l0,0
		c-0.788,1.4-1.623,2.809-2.511,4.211l0,0c0.145,0.049,0.287,0.104,0.424,0.162l0,0C131.736,13.302,133.351,9.939,134.489,6.617
		L134.489,6.617z M134.812,9.292c-1.084,2.682-2.454,5.373-4.082,8.056l0,0c0.003,0.003,0.005,0.004,0.007,0.007l0,0
		c0.139,0.162,0.281,0.407,0.269,0.708l-0.02,0.551l-0.54,0.045l0,0c-0.19,0.018-0.375,0.039-0.567,0.063l0,0
		c-0.24,0.375-0.481,0.747-0.734,1.121l0.291,0.332l0,0c-0.413,0.349-0.824,0.704-1.229,1.057l0,0
		c-0.921,1.317-1.896,2.634-2.929,3.954l0,0c1.079,0.381,2.086,0.703,2.969,0.92l-0.143,1.224l0,0
		c-0.62,0.01-1.244,0.02-1.872,0.033l0,0c1.812,0.464,3.616,1.016,5.401,1.631l0,0C132.959,22.831,134.196,15.875,134.812,9.292
		L134.812,9.292z M128.77,17.65c-0.061-0.024-0.125-0.045-0.191-0.068l0,0c-0.026,0.042-0.052,0.08-0.078,0.119l0,0
		C128.593,17.683,128.68,17.668,128.77,17.65L128.77,17.65z M126.891,16.206l-0.282-0.004l0,0l0,0L126.891,16.206L126.891,16.206z
		 M126.691,16.658l-0.228-0.262L126.691,16.658L126.691,16.658z M126.617,17.006c-0.206-0.067-0.329-0.067-0.505-0.164l0,0
		c-0.506,0.644-1.009,1.282-1.52,1.909l0,0c0.39-0.119,0.776-0.241,1.161-0.354l0,0C126.046,17.938,126.338,17.469,126.617,17.006
		L126.617,17.006z M128.196,19.037c-0.23,0.047-0.46,0.105-0.695,0.165l0,0c-0.569,0.835-1.146,1.668-1.752,2.5l0,0
		c0.513-0.433,1.019-0.869,1.526-1.307l0,0C127.586,19.938,127.893,19.485,128.196,19.037L128.196,19.037z M124.707,20.022
		c-0.526,0.169-1.058,0.35-1.585,0.532l0,0c-0.818,0.984-1.64,1.953-2.473,2.899l0,0c0.45,0.172,0.901,0.342,1.355,0.512l0,0
		C122.939,22.655,123.841,21.347,124.707,20.022L124.707,20.022z M120.829,21.349c-1.119,0.391-2.188,0.753-3.161,1.042l0,0
		c0.563,0.185,1.145,0.387,1.733,0.602l0,0C119.88,22.454,120.353,21.9,120.829,21.349L120.829,21.349z M123.23,25.756
		c-0.068-0.024-0.137-0.047-0.203-0.074l0,0c-0.192,0.165-0.387,0.331-0.579,0.496l0,0c0.149-0.002,0.292-0.004,0.437-0.007l0,0
		C123.004,26.034,123.114,25.898,123.23,25.756L123.23,25.756z M121.242,25.008c-0.491-0.185-0.984-0.379-1.474-0.557l0,0
		c-0.427,0.485-0.861,0.96-1.288,1.441l0,0c0.638,0.071,1.271,0.162,1.915,0.258l0,0C120.678,25.771,120.968,25.389,121.242,25.008
		L121.242,25.008z M121.674,27.626c-0.142-0.024-0.279-0.047-0.422-0.076l0,0c-1.806,2.217-3.724,4.42-5.733,6.598l0,0
		c-0.305,0.346-0.609,0.689-0.914,1.038l0,0C117.137,32.688,119.501,30.164,121.674,27.626L121.674,27.626z M119.028,27.481
		c-0.684,0.01-1.369,0.024-2.055,0.035l0,0c-3.897,4.15-7.925,7.984-12.075,11.551l0,0C79.613,60.812,49.859,72.814,17.835,88.545
		l0,0c10.055-1.93,22.291-6.198,35.043-12.09l0,0C76.605,63.208,97.987,45.516,119.028,27.481L119.028,27.481z M115.898,31.791
		c-15.649,13.338-31.59,26.377-48.643,37.431l0,0c8.726-4.745,17.395-10.118,25.491-15.894l0,0c2.397-1.895,4.748-3.823,7.029-5.791
		l0,0c5.323-4.576,10.306-9.338,14.805-14.204l0,0C115.027,32.814,115.464,32.303,115.898,31.791L115.898,31.791z M70.547,68.827
		c-5.718,3.195-11.477,6.136-17.145,8.751l0,0c-5.851,3.267-11.845,6.259-18.02,8.926l0,0C46.83,82.087,58.879,76.02,70.547,68.827
		L70.547,68.827z"/>
</g>
</svg>
